<svg width="50" height="50" viewBox="0 0 50 50" fill="none" xmlns="http://www.w3.org/2000/svg">
<path d="M25 50C21.5417 50 18.2917 49.3438 15.25 48.0312C12.2083 46.7188 9.5625 44.9375 7.3125 42.6875C5.0625 40.4375 3.28125 37.7917 1.96875 34.75C0.65625 31.7083 0 28.4583 0 25C0 21.5417 0.65625 18.2917 1.96875 15.25C3.28125 12.2083 5.0625 9.5625 7.3125 7.3125C9.5625 5.0625 12.2083 3.28125 15.25 1.96875C18.2917 0.65625 21.5417 0 25 0C28.4583 0 31.7083 0.65625 34.75 1.96875C37.7917 3.28125 40.4375 5.0625 42.6875 7.3125C44.9375 9.5625 46.7188 12.2083 48.0312 15.25C49.3438 18.2917 50 21.5417 50 25V28.625C50 31.0833 49.1562 33.1771 47.4688 34.9062C45.7812 36.6354 43.7083 37.5 41.25 37.5C39.7917 37.5 38.4167 37.1875 37.125 36.5625C35.8333 35.9375 34.75 35.0417 33.875 33.875C32.6667 35.0833 31.3021 35.9896 29.7812 36.5938C28.2604 37.1979 26.6667 37.5 25 37.5C21.5417 37.5 18.5938 36.2812 16.1562 33.8438C13.7188 31.4062 12.5 28.4583 12.5 25C12.5 21.5417 13.7188 18.5938 16.1562 16.1562C18.5938 13.7188 21.5417 12.5 25 12.5C28.4583 12.5 31.4062 13.7188 33.8438 16.1562C36.2812 18.5938 37.5 21.5417 37.5 25V28.625C37.5 29.7083 37.8542 30.625 38.5625 31.375C39.2708 32.125 40.1667 32.5 41.25 32.5C42.3333 32.5 43.2292 32.125 43.9375 31.375C44.6458 30.625 45 29.7083 45 28.625V25C45 19.4167 43.0625 14.6875 39.1875 10.8125C35.3125 6.9375 30.5833 5 25 5C19.4167 5 14.6875 6.9375 10.8125 10.8125C6.9375 14.6875 5 19.4167 5 25C5 30.5833 6.9375 35.3125 10.8125 39.1875C14.6875 43.0625 19.4167 45 25 45H37.5V50H25ZM25 32.5C27.0833 32.5 28.8542 31.7708 30.3125 30.3125C31.7708 28.8542 32.5 27.0833 32.5 25C32.5 22.9167 31.7708 21.1458 30.3125 19.6875C28.8542 18.2292 27.0833 17.5 25 17.5C22.9167 17.5 21.1458 18.2292 19.6875 19.6875C18.2292 21.1458 17.5 22.9167 17.5 25C17.5 27.0833 18.2292 28.8542 19.6875 30.3125C21.1458 31.7708 22.9167 32.5 25 32.5Z" fill="#2C3E50"/>
</svg>
