<svg width="98" height="98" viewBox="0 0 98 98" fill="none" xmlns="http://www.w3.org/2000/svg">
<path d="M23.8876 69.8251C27.3584 67.1709 31.2376 65.0782 35.5251 63.547C39.8126 62.0157 44.3042 61.2501 49.0001 61.2501C53.6959 61.2501 58.1876 62.0157 62.4751 63.547C66.7626 65.0782 70.6417 67.1709 74.1126 69.8251C76.4945 67.0348 78.349 63.8702 79.6761 60.3313C81.0032 56.7924 81.6667 53.0154 81.6667 49.0001C81.6667 39.9487 78.4852 32.2414 72.122 25.8782C65.7588 19.515 58.0515 16.3334 49.0001 16.3334C39.9487 16.3334 32.2414 19.515 25.8782 25.8782C19.515 32.2414 16.3334 39.9487 16.3334 49.0001C16.3334 53.0154 16.997 56.7924 18.324 60.3313C19.6511 63.8702 21.5056 67.0348 23.8876 69.8251ZM49.0001 53.0834C44.9848 53.0834 41.599 51.7053 38.8428 48.949C36.0865 46.1928 34.7084 42.807 34.7084 38.7917C34.7084 34.7765 36.0865 31.3907 38.8428 28.6345C41.599 25.8782 44.9848 24.5001 49.0001 24.5001C53.0154 24.5001 56.4011 25.8782 59.1574 28.6345C61.9136 31.3907 63.2917 34.7765 63.2917 38.7917C63.2917 42.807 61.9136 46.1928 59.1574 48.949C56.4011 51.7053 53.0154 53.0834 49.0001 53.0834ZM49.0001 89.8334C43.3515 89.8334 38.0431 88.7615 33.0751 86.6178C28.107 84.474 23.7855 81.5647 20.1105 77.8897C16.4355 74.2147 13.5261 69.8931 11.3824 64.9251C9.23862 59.957 8.16675 54.6487 8.16675 49.0001C8.16675 43.3515 9.23862 38.0431 11.3824 33.0751C13.5261 28.107 16.4355 23.7855 20.1105 20.1105C23.7855 16.4355 28.107 13.5261 33.0751 11.3824C38.0431 9.23862 43.3515 8.16675 49.0001 8.16675C54.6487 8.16675 59.957 9.23862 64.9251 11.3824C69.8931 13.5261 74.2147 16.4355 77.8897 20.1105C81.5647 23.7855 84.474 28.107 86.6178 33.0751C88.7615 38.0431 89.8334 43.3515 89.8334 49.0001C89.8334 54.6487 88.7615 59.957 86.6178 64.9251C84.474 69.8931 81.5647 74.2147 77.8897 77.8897C74.2147 81.5647 69.8931 84.474 64.9251 86.6178C59.957 88.7615 54.6487 89.8334 49.0001 89.8334ZM49.0001 81.6667C52.607 81.6667 56.0098 81.1393 59.2084 80.0845C62.407 79.0296 65.3334 77.5154 67.9876 75.5417C65.3334 73.5681 62.407 72.0539 59.2084 70.999C56.0098 69.9442 52.607 69.4167 49.0001 69.4167C45.3931 69.4167 41.9904 69.9442 38.7917 70.999C35.5931 72.0539 32.6667 73.5681 30.0126 75.5417C32.6667 77.5154 35.5931 79.0296 38.7917 80.0845C41.9904 81.1393 45.3931 81.6667 49.0001 81.6667ZM49.0001 44.9167C50.7695 44.9167 52.2327 44.3383 53.3897 43.1813C54.5466 42.0244 55.1251 40.5612 55.1251 38.7917C55.1251 37.0223 54.5466 35.5591 53.3897 34.4022C52.2327 33.2452 50.7695 32.6667 49.0001 32.6667C47.2306 32.6667 45.7674 33.2452 44.6105 34.4022C43.4536 35.5591 42.8751 37.0223 42.8751 38.7917C42.8751 40.5612 43.4536 42.0244 44.6105 43.1813C45.7674 44.3383 47.2306 44.9167 49.0001 44.9167Z" fill="#2C3E50"/>
</svg>
