<svg width="50" height="50" viewBox="0 0 50 50" fill="none" xmlns="http://www.w3.org/2000/svg">
<path d="M8.33341 41.6666C7.18758 41.6666 6.20668 41.2586 5.39071 40.4426C4.57473 39.6267 4.16675 38.6458 4.16675 37.4999V12.4999C4.16675 11.3541 4.57473 10.3732 5.39071 9.55721C6.20668 8.74124 7.18758 8.33325 8.33341 8.33325H41.6667C42.8126 8.33325 43.7935 8.74124 44.6095 9.55721C45.4254 10.3732 45.8334 11.3541 45.8334 12.4999V37.4999C45.8334 38.6458 45.4254 39.6267 44.6095 40.4426C43.7935 41.2586 42.8126 41.6666 41.6667 41.6666H8.33341ZM25.0001 27.0833L8.33341 16.6666V37.4999H41.6667V16.6666L25.0001 27.0833ZM25.0001 22.9166L41.6667 12.4999H8.33341L25.0001 22.9166ZM8.33341 16.6666V12.4999V37.4999V16.6666Z" fill="#2C3E50"/>
</svg>
